<svg width="1921" height="3749" viewBox="0 0 1921 3749" fill="none" xmlns="http://www.w3.org/2000/svg">
<rect width="1920" height="3748" fill="#414141"/>
<path fill-rule="evenodd" clip-rule="evenodd" d="M1920 1993.74V3748H1872.5L1635 1839L1920 1993.74Z" fill="#36742C"/>
<path d="M1920 1993.74H1920.5V1993.44L1920.24 1993.3L1920 1993.74ZM1920 3748V3748.5H1920.5V3748H1920ZM1872.5 3748L1872 3748.06L1872.06 3748.5H1872.5V3748ZM1635 1839L1635.24 1838.56L1634.38 1838.1L1634.5 1839.06L1635 1839ZM1919.5 1993.74V3748H1920.5V1993.74H1919.5ZM1920 3747.5H1872.5V3748.5H1920V3747.5ZM1634.5 1839.06L1872 3748.06L1873 3747.94L1635.5 1838.94L1634.5 1839.06ZM1920.24 1993.3L1635.24 1838.56L1634.76 1839.44L1919.76 1994.18L1920.24 1993.3Z" fill="#36742C"/>
<path fill-rule="evenodd" clip-rule="evenodd" d="M0 1790.31V672.826L901.266 1171.87L0 1790.31Z" fill="#36742C"/>
</svg>
