<svg width="19" height="23" viewBox="0 0 19 23" fill="none" xmlns="http://www.w3.org/2000/svg">
<path fill-rule="evenodd" clip-rule="evenodd" d="M9.50002 -0.213013C8.18775 -0.213013 6.92923 0.308284 6.00131 1.2362C5.0734 2.16411 4.5521 3.42264 4.5521 4.7349C4.5521 6.04717 5.0734 7.3057 6.00131 8.23361C6.92923 9.16152 8.18775 9.68282 9.50002 9.68282C10.8123 9.68282 12.0708 9.16152 12.9987 8.23361C13.9266 7.3057 14.4479 6.04717 14.4479 4.7349C14.4479 3.42264 13.9266 2.16411 12.9987 1.2362C12.0708 0.308284 10.8123 -0.213013 9.50002 -0.213013ZM6.1146 4.7349C6.1146 3.83704 6.47128 2.97594 7.10617 2.34105C7.74106 1.70616 8.60215 1.34949 9.50002 1.34949C10.3979 1.34949 11.259 1.70616 11.8939 2.34105C12.5288 2.97594 12.8854 3.83704 12.8854 4.7349C12.8854 5.63277 12.5288 6.49387 11.8939 7.12876C11.259 7.76364 10.3979 8.12032 9.50002 8.12032C8.60215 8.12032 7.74106 7.76364 7.10617 7.12876C6.47128 6.49387 6.1146 5.63277 6.1146 4.7349ZM9.50002 11.2453C7.09064 11.2453 4.86981 11.7932 3.22502 12.7182C1.60418 13.6307 0.385434 15.012 0.385434 16.7141V16.8203C0.384393 18.0307 0.383351 19.5495 1.71564 20.6349C2.37085 21.1682 3.28856 21.5484 4.52814 21.7984C5.76981 22.0505 7.3896 22.1828 9.50002 22.1828C11.6104 22.1828 13.2292 22.0505 14.4729 21.7984C15.7125 21.5484 16.6292 21.1682 17.2854 20.6349C18.6177 19.5495 18.6156 18.0307 18.6146 16.8203V16.7141C18.6146 15.012 17.3958 13.6307 15.7761 12.7182C14.1302 11.7932 11.9104 11.2453 9.50002 11.2453ZM1.94793 16.7141C1.94793 15.8276 2.59585 14.8651 3.99064 14.0807C5.36148 13.3099 7.30731 12.8078 9.50106 12.8078C11.6927 12.8078 13.6386 13.3099 15.0094 14.0807C16.4052 14.8651 17.0521 15.8276 17.0521 16.7141C17.0521 18.0766 17.0104 18.8432 16.2979 19.4224C15.9125 19.737 15.2667 20.0443 14.1625 20.2672C13.0615 20.4901 11.5563 20.6203 9.50002 20.6203C7.44377 20.6203 5.93752 20.4901 4.83752 20.2672C3.73335 20.0443 3.08752 19.737 2.7021 19.4234C1.9896 18.8432 1.94793 18.0766 1.94793 16.7141Z" fill="white"/>
</svg>
